<?xml version="1.0" encoding="UTF-8" standalone="no"?>
<svg
   xmlns:dc="http://purl.org/dc/elements/1.1/"
   xmlns:cc="http://creativecommons.org/ns#"
   xmlns:rdf="http://www.w3.org/1999/02/22-rdf-syntax-ns#"
   xmlns:svg="http://www.w3.org/2000/svg"
   xmlns="http://www.w3.org/2000/svg"
   id="svg8"
   version="1.1"
   viewBox="0 0 135.46666 135.46667">
  <defs
     id="defs2">
    <marker
       style="overflow:visible"
       id="marker1293"
       refX="0"
       refY="0"
       orient="auto">
      <path
         transform="matrix(0.8,0,0,0.8,10,0)"
         style="fill:#63a4ff;fill-opacity:1;fill-rule:evenodd;stroke:#63a4ff;stroke-width:1.00000003pt;stroke-opacity:1"
         d="M 0,0 5,-5 -12.5,0 5,5 Z"
         id="path1291" />
    </marker>
    <marker
       style="overflow:visible"
       id="Arrow1Lstart"
       refX="0"
       refY="0"
       orient="auto">
      <path
         transform="matrix(0.8,0,0,0.8,10,0)"
         style="fill:#63a4ff;fill-opacity:1;fill-rule:evenodd;stroke:#63a4ff;stroke-width:1.00000003pt;stroke-opacity:1"
         d="M 0,0 5,-5 -12.5,0 5,5 Z"
         id="path985" />
    </marker>
  </defs>
  <metadata
     id="metadata5">
    <rdf:RDF>
      <cc:Work
         rdf:about="">
        <dc:format>image/svg+xml</dc:format>
        <dc:type
           rdf:resource="http://purl.org/dc/dcmitype/StillImage" />
        <dc:title></dc:title>
      </cc:Work>
    </rdf:RDF>
  </metadata>
  <g
     transform="translate(0.4916727,-168.8893)"
     id="layer1">
    <circle
       r="46.302082"
       cy="257.89691"
       cx="88.358238"
       id="path867-2"
       style="fill:#fff000;fill-opacity:0;stroke-width:0.28420788;filter:url(#filter1088)" />
    <g
       transform="matrix(1.4628571,0,0,1.4628571,-45.637567,-112.54628)"
       id="g883">
      <path
         style="fill:#ffffff;fill-opacity:1;stroke-width:0.28420788"
         d="M 77.163536,192.38761 A 46.302083,46.302083 0 0 0 30.861453,238.6897 46.302083,46.302083 0 0 0 77.163536,284.99178 46.302083,46.302083 0 0 0 123.46562,238.6897 46.302083,46.302083 0 0 0 77.163536,192.38761 Z m 0,6.30194 A 39.999999,39.999999 0 0 1 117.16368,238.6897 39.999999,39.999999 0 0 1 77.163536,278.68984 39.999999,39.999999 0 0 1 37.163394,238.6897 39.999999,39.999999 0 0 1 77.163536,198.68955 Z"
         id="path867" />
      <path
         style="fill:#ffffff;fill-opacity:1;stroke-width:0.20883623;filter:url(#filter1088)"
         d="m 77.163536,192.38761 a 25,46.302083 0 0 0 -24.281205,35.50275 34.999999,15 0 0 1 6.30866,-2.05311 18.999999,39.999999 0 0 1 17.972545,-27.1477 18.999999,39.999999 0 0 1 17.967896,27.14874 34.999999,15 0 0 1 6.315898,2.07222 25,46.302083 0 0 0 -24.283794,-35.5229 z m -24.283789,57.08127 a 25,46.302083 0 0 0 24.283789,35.5229 25,46.302083 0 0 0 24.281204,-35.50275 34.999999,15 0 0 1 -6.308658,2.05311 18.999999,39.999999 0 0 1 -17.972546,27.1477 18.999999,39.999999 0 0 1 -17.967896,-27.14873 34.999999,15 0 0 1 -6.315893,-2.07223 z"
         id="path867-5" />
      <text
         xml:space="preserve"
         style="font-style:normal;font-weight:normal;font-size:21.16666794px;line-height:1.25;font-family:sans-serif;letter-spacing:0px;word-spacing:0px;fill:#ffffff;fill-opacity:1;stroke:none;stroke-width:0.26458332"
         x="39.539787"
         y="244.74222"
         id="text4546"><tspan
           id="tspan4544"
           x="39.539787"
           y="244.74222"
           style="font-style:normal;font-variant:normal;font-weight:bold;font-stretch:normal;font-size:21.16666794px;font-family:monospace;-inkscape-font-specification:'monospace Bold';fill:#ffffff;fill-opacity:1;stroke-width:0.26458332">YAML<tspan
   style="fill:#ffffff;fill-opacity:1;stroke-width:0.26458332"
   id="tspan4565">8n</tspan></tspan></text>
    </g>
  </g>
</svg>
